<?xml version="1.0" encoding="utf-8"?>
<!-- Generator: Adobe Illustrator 26.2.1, SVG Export Plug-In . SVG Version: 6.00 Build 0)  -->
<svg version="1.1" id="Layer_1" xmlns="http://www.w3.org/2000/svg" xmlns:xlink="http://www.w3.org/1999/xlink" x="0px" y="0px"
	 viewBox="0 0 82 46" style="enable-background:new 0 0 82 46;" xml:space="preserve">
<style type="text/css">
	.st0{fill:#AAAAAA;}
</style>
<g>
	<g>
		<path class="st0" d="M0.4,15.3h4.9c2.1,0,3.7,0.3,4.7,0.9c1.1,0.6,1.6,1.6,1.6,3.1c0,0.6-0.1,1.1-0.3,1.6
			c-0.2,0.5-0.5,0.9-0.8,1.2c-0.4,0.3-0.8,0.5-1.3,0.6v0.1c0.5,0.1,1,0.3,1.4,0.6c0.4,0.3,0.8,0.6,1,1.1c0.3,0.5,0.4,1.2,0.4,2
			c0,1-0.2,1.8-0.7,2.4c-0.5,0.7-1.1,1.2-2,1.6C8.5,30.8,7.5,31,6.3,31H0.4V15.3z M3.8,21.5h1.9c1,0,1.6-0.2,2-0.5
			c0.4-0.3,0.6-0.8,0.6-1.3c0-0.6-0.2-1-0.7-1.3c-0.4-0.3-1.1-0.4-2.1-0.4H3.8V21.5z M3.8,24.2v4.1h2.2c1,0,1.7-0.2,2.1-0.6
			c0.4-0.4,0.6-0.9,0.6-1.6c0-0.4-0.1-0.7-0.3-1c-0.2-0.3-0.5-0.5-0.9-0.7c-0.4-0.2-1-0.2-1.7-0.2H3.8z"/>
		<path class="st0" d="M13.2,19h3.6l2.3,6.8c0.1,0.2,0.1,0.4,0.2,0.7c0,0.2,0.1,0.5,0.1,0.7c0,0.2,0.1,0.5,0.1,0.7h0.1
			c0-0.4,0.1-0.7,0.2-1.1c0.1-0.3,0.2-0.7,0.3-1l2.2-6.8h3.5l-5.1,13.5c-0.3,0.8-0.7,1.5-1.2,2.1c-0.5,0.6-1.1,1-1.7,1.3
			c-0.6,0.3-1.3,0.4-2.1,0.4c-0.4,0-0.7,0-1-0.1c-0.3,0-0.5-0.1-0.7-0.1v-2.6c0.2,0,0.3,0.1,0.6,0.1c0.2,0,0.5,0,0.7,0
			c0.5,0,0.9-0.1,1.2-0.3c0.3-0.2,0.6-0.5,0.8-0.8c0.2-0.3,0.4-0.7,0.5-1.1l0.2-0.6L13.2,19z"/>
	</g>
</g>
<path class="st0" d="M80.3,11.8L66.9,1.1c-0.7-0.6-2-0.9-2.9-0.7L47.4,4.2c-0.9,0.2-2,1-2.3,1.9l-7.4,15.4c-0.4,0.8-0.4,2.2,0,3
	L45,39.9c0.4,0.8,1.5,1.7,2.4,1.9L64,45.6c0.9,0.2,2.2-0.1,2.9-0.7l13.3-10.6c0.7-0.6,1.3-1.8,1.3-2.7V14.5
	C81.6,13.6,81,12.3,80.3,11.8z M45.8,31.4C45.4,31,45.5,30.3,46,30l1.3-0.2c2.1-0.2,2.4-0.6,3.2-3.3l0.5-1.7
	c0.2-0.7,0.1-0.8-0.6-0.8h-8.6c-0.4-0.2-0.5-0.7-0.3-1.2l18-18.1c0.3-0.3,0.7-0.6,1.3-0.6h1.4c0.6,0,0.7,0.4,0,1.1l-16.4,16
	c-0.4,0.3-0.6,0.7,0.6,0.7h4.6c0.7,0,0.8,0,1-0.6l1.8-5.9c0.3-0.9,0.8-1.2,1.4-1.4c0.9-0.5,3.1-1.1,3.6-1.1c0.5,0,0.6,0.3,0.6,0.6
	l-2.4,7.7c-0.2,0.6-0.3,0.8,0.6,0.8h2.5c0.6,0.3,0.2,1.8-0.5,2.2H57c-0.8,0-0.9,0.1-1.2,0.9l-0.5,1.6c-0.9,2.7-0.5,3.1,1.4,3.3
	l0.6,0.1c0.4,0.2,0.3,1.2-0.2,1.3c-1.8-0.1-3.8-0.1-5.7-0.1C49.4,31.3,47.5,31.3,45.8,31.4z M71.9,22.7c2.3,0.2,4.7,2,4.7,5.4
	c0,3.6-2.9,6.8-5.7,8.6c-3.3,2.1-7.4,2.9-9.8,2.9c-2.7,0-4.6-0.8-4.6-2.7c0-1.2,1-2.2,2.2-2.2c1.3,0,2,1.2,2.5,1.8
	c0.6,0.7,1.3,1.1,2.2,1.1c3.9,0,7.3-3.9,7.3-8.6c0-2.5-1.3-4.2-3.9-4.2c-1.2,0-2.5,0.7-3.6,1.6c-0.8-0.1-1.3-1.3-0.7-2
	c1.7-0.6,4.9-1.8,6.7-2.9c1.8-1.1,3-2.3,3-3.8c0-1.5-1.1-2.5-2.9-2.5c-1.6,0-3.5,1.3-4.9,3.2c-0.6,0.1-1-0.3-1.1-0.8
	c1.8-3.1,5.1-4.9,8.5-4.9c2.8,0,5.7,1.4,5.7,4.3c0,2.3-2.2,3.8-5.8,5.1C71.2,22.4,71.4,22.7,71.9,22.7z"/>
</svg>
